<svg width="717" height="389" viewBox="0 0 717 389" fill="none" xmlns="http://www.w3.org/2000/svg">
<path d="M360.978 389C554.955 389 712.204 378.59 712.204 365.748C712.204 352.906 554.955 342.496 360.978 342.496C167 342.496 9.75098 352.906 9.75098 365.748C9.75098 378.59 167 389 360.978 389Z" fill="#F2F2F2"/>
<path d="M347.516 111.201C290.292 111.201 249.205 147.915 249.205 233.58C249.205 330.667 290.292 356.366 347.516 356.366C404.74 356.366 448.274 328.219 448.274 233.58C448.274 132.413 404.74 111.201 347.516 111.201ZM347.892 324.14C308.257 324.14 287.55 300.887 287.55 233.642C287.55 174.309 309.105 143.02 348.74 143.02C388.375 143.02 409.929 163.572 409.929 233.642C409.929 299.192 387.527 324.14 347.892 324.14Z" fill="#2F2E41"/>
<path d="M214.939 288.649H191.279V218.977C191.279 215.276 189.809 211.727 187.193 209.11C184.576 206.494 181.027 205.024 177.326 205.024H171.782C169.95 205.024 168.136 205.385 166.443 206.086C164.75 206.787 163.212 207.815 161.916 209.11C160.62 210.406 159.593 211.944 158.891 213.637C158.19 215.33 157.829 217.144 157.829 218.977V288.649H91.0928C89.7199 288.649 88.3702 288.294 87.1749 287.619C85.9795 286.944 84.979 285.971 84.2703 284.795C83.5617 283.619 83.169 282.28 83.1304 280.908C83.0917 279.535 83.4085 278.176 84.0498 276.962L154.683 143.276C155.564 141.61 156.097 139.782 156.252 137.903C156.407 136.024 156.179 134.134 155.583 132.345C154.987 130.557 154.034 128.908 152.783 127.498C151.532 126.088 150.009 124.946 148.304 124.141L144.134 122.172C140.897 120.643 137.195 120.417 133.796 121.541C130.396 122.666 127.559 125.053 125.871 128.211L39.7247 289.364C38.2577 292.108 37.4902 295.172 37.4902 298.284C37.4902 300.768 37.9796 303.229 38.9304 305.524C39.8813 307.82 41.2749 309.905 43.0318 311.662C44.7887 313.419 46.8745 314.813 49.17 315.764C51.4655 316.715 53.9258 317.204 56.4104 317.204H157.829V361.26C157.829 363.457 158.262 365.632 159.102 367.661C159.943 369.69 161.175 371.534 162.728 373.087C164.281 374.64 166.125 375.872 168.154 376.712C170.183 377.553 172.358 377.985 174.554 377.985H174.554C176.751 377.985 178.926 377.553 180.955 376.712C182.984 375.872 184.828 374.64 186.381 373.087C187.934 371.534 189.166 369.69 190.006 367.661C190.847 365.632 191.279 363.457 191.279 361.26V317.204H214.939C218.726 317.204 222.357 315.7 225.035 313.022C227.712 310.345 229.217 306.713 229.217 302.926C229.217 299.14 227.712 295.508 225.035 292.831C222.357 290.153 218.726 288.649 214.939 288.649Z" fill="#22323F"/>
<path d="M653.054 288.649H629.394V218.977C629.394 215.276 627.924 211.727 625.307 209.11C622.691 206.494 619.142 205.024 615.441 205.024H609.897C608.065 205.024 606.25 205.385 604.557 206.086C602.865 206.787 601.326 207.815 600.031 209.11C598.735 210.406 597.707 211.944 597.006 213.637C596.305 215.33 595.944 217.144 595.944 218.977V288.649H529.207C527.835 288.649 526.485 288.294 525.29 287.619C524.094 286.944 523.094 285.971 522.385 284.795C521.676 283.619 521.284 282.28 521.245 280.908C521.206 279.535 521.523 278.176 522.165 276.962L592.798 143.276C593.678 141.61 594.212 139.782 594.367 137.903C594.521 136.024 594.294 134.134 593.698 132.345C593.101 130.557 592.149 128.908 590.898 127.498C589.647 126.088 588.123 124.946 586.419 124.141L582.249 122.172C579.011 120.643 575.31 120.417 571.91 121.541C568.511 122.666 565.674 125.053 563.986 128.211L477.839 289.364C476.372 292.108 475.605 295.172 475.605 298.284C475.605 303.302 477.598 308.114 481.147 311.662C484.695 315.211 489.507 317.204 494.525 317.204H595.944V361.26C595.944 365.696 597.706 369.95 600.843 373.087C603.979 376.223 608.233 377.985 612.669 377.985C617.105 377.985 621.359 376.223 624.495 373.087C627.632 369.95 629.394 365.696 629.394 361.26V317.204H653.054C656.84 317.204 660.472 315.7 663.15 313.022C665.827 310.345 667.331 306.713 667.331 302.926C667.331 299.14 665.827 295.508 663.15 292.831C660.472 290.153 656.841 288.649 653.054 288.649Z" fill="#22323F"/>
<path d="M221.466 280.491H197.806V210.819C197.806 208.986 197.445 207.172 196.744 205.479C196.043 203.786 195.015 202.248 193.719 200.952C192.424 199.657 190.886 198.629 189.193 197.928C187.5 197.226 185.685 196.865 183.853 196.865H178.309C174.609 196.865 171.06 198.335 168.443 200.952C165.826 203.569 164.356 207.118 164.356 210.819V280.491H97.6196C96.2467 280.491 94.8971 280.136 93.7017 279.461C92.5064 278.785 91.5058 277.813 90.7972 276.637C90.0885 275.461 89.6959 274.122 89.6572 272.749C89.6186 271.377 89.9353 270.018 90.5767 268.804L161.21 135.118C162.09 133.451 162.624 131.623 162.779 129.745C162.934 127.866 162.706 125.975 162.11 124.187C161.514 122.399 160.561 120.75 159.31 119.34C158.059 117.93 156.535 116.788 154.831 115.983L150.661 114.014C147.424 112.485 143.722 112.259 140.323 113.383C136.923 114.507 134.086 116.895 132.398 120.053L46.2515 281.206C44.7846 283.95 44.0171 287.014 44.0171 290.126V290.126C44.0171 295.144 46.0105 299.956 49.5587 303.504C53.1069 307.052 57.9193 309.046 62.9373 309.046H164.356V353.102C164.356 355.298 164.789 357.473 165.629 359.502C166.47 361.532 167.702 363.375 169.255 364.929C170.808 366.482 172.652 367.714 174.681 368.554C176.71 369.395 178.885 369.827 181.081 369.827H181.081C185.517 369.827 189.771 368.065 192.908 364.929C196.044 361.792 197.806 357.538 197.806 353.102V309.046H221.466C223.341 309.046 225.198 308.677 226.93 307.959C228.662 307.241 230.236 306.19 231.562 304.864C232.888 303.538 233.939 301.964 234.657 300.232C235.374 298.5 235.744 296.643 235.744 294.768V294.768C235.744 292.893 235.374 291.037 234.657 289.305C233.939 287.572 232.888 285.998 231.562 284.673C230.236 283.347 228.662 282.295 226.93 281.578C225.198 280.86 223.341 280.491 221.466 280.491V280.491Z" stroke="#3F3D56" stroke-miterlimit="10"/>
<path d="M665.292 280.491H641.632V210.819C641.632 207.118 640.162 203.569 637.546 200.952C634.929 198.335 631.38 196.865 627.679 196.865H622.135C620.303 196.865 618.489 197.226 616.796 197.928C615.103 198.629 613.565 199.657 612.269 200.952C610.973 202.248 609.946 203.786 609.244 205.479C608.543 207.172 608.182 208.986 608.182 210.819V280.491H541.446C540.073 280.491 538.723 280.136 537.528 279.461C536.333 278.785 535.332 277.813 534.623 276.637C533.915 275.461 533.522 274.122 533.483 272.749C533.445 271.377 533.762 270.018 534.403 268.804L605.036 135.118C605.917 133.451 606.45 131.623 606.605 129.745C606.76 127.866 606.532 125.975 605.936 124.187C605.34 122.399 604.387 120.75 603.136 119.34C601.885 117.93 600.362 116.788 598.657 115.983L594.487 114.014C591.25 112.485 587.548 112.259 584.149 113.383C580.749 114.507 577.912 116.895 576.224 120.053L490.078 281.206C488.611 283.95 487.843 287.014 487.843 290.126C487.843 295.144 489.837 299.956 493.385 303.504C496.933 307.052 501.745 309.046 506.763 309.046H608.182V353.102C608.182 357.538 609.944 361.792 613.081 364.929C616.217 368.065 620.472 369.827 624.907 369.827V369.827C629.343 369.827 633.597 368.065 636.734 364.929C639.87 361.792 641.632 357.538 641.632 353.102V309.046H665.292C667.167 309.046 669.024 308.677 670.756 307.959C672.488 307.241 674.062 306.19 675.388 304.864C676.714 303.538 677.765 301.964 678.483 300.232C679.2 298.5 679.57 296.643 679.57 294.768V294.768C679.57 290.982 678.066 287.35 675.388 284.673C672.71 281.995 669.079 280.491 665.292 280.491V280.491Z" stroke="#3F3D56" stroke-miterlimit="10"/>
<path d="M360.569 103.857C303.345 103.857 262.258 140.571 262.258 226.236C262.258 323.323 303.345 349.023 360.569 349.023C417.793 349.023 461.328 320.876 461.328 226.236C461.328 125.07 417.793 103.857 360.569 103.857ZM360.945 316.796C321.31 316.796 300.604 293.543 300.604 226.299C300.604 166.965 322.158 135.676 361.793 135.676C401.428 135.676 422.982 156.229 422.982 226.299C422.982 291.848 400.58 316.796 360.945 316.796V316.796Z" stroke="#3F3D56" stroke-miterlimit="10"/>
<path d="M314.7 20.7425C319.445 20.7425 323.29 16.8967 323.29 12.1525C323.29 7.40838 319.445 3.5625 314.7 3.5625C309.956 3.5625 306.11 7.40838 306.11 12.1525C306.11 16.8967 309.956 20.7425 314.7 20.7425Z" fill="#2F2E41"/>
<path d="M335.651 62.4348C348.958 62.4348 359.745 48.4583 359.745 31.2174C359.745 13.9765 348.958 0 335.651 0C322.344 0 311.557 13.9765 311.557 31.2174C311.557 48.4583 322.344 62.4348 335.651 62.4348Z" fill="#2F2E41"/>
<path opacity="0.1" d="M335.652 53.0073C323.582 53.0073 313.585 41.508 311.831 26.5039C311.648 28.0686 311.557 29.6426 311.558 31.2179C311.558 48.4588 322.345 62.4353 335.652 62.4353C348.958 62.4353 359.746 48.4588 359.746 31.2179C359.746 29.6426 359.655 28.0686 359.472 26.5039C357.718 41.508 347.722 53.0073 335.652 53.0073Z" fill="#1E1E1E"/>
<path d="M384.68 122.639C384.162 124.765 381.931 126.468 379.461 127.658C374.266 130.159 367.858 130.905 361.643 131.156C360.058 131.252 358.467 131.223 356.886 131.068C353.823 130.772 350.949 129.451 348.729 127.318C348.571 127.215 348.441 127.073 348.352 126.907C348.263 126.74 348.218 126.553 348.221 126.364C348.224 126.175 348.275 125.989 348.369 125.825C348.463 125.661 348.597 125.523 348.758 125.425C352.067 121.79 357.589 119.562 363.151 117.957C367.369 116.74 374.724 113.588 379.324 114.014C383.78 114.426 385.333 119.954 384.68 122.639Z" fill="#3F3D56"/>
<path opacity="0.1" d="M384.68 122.639C384.162 124.765 381.931 126.468 379.461 127.658C374.266 130.159 367.858 130.905 361.643 131.156C360.058 131.252 358.467 131.223 356.886 131.068C353.823 130.772 350.949 129.451 348.729 127.318C348.571 127.215 348.441 127.073 348.352 126.907C348.263 126.74 348.218 126.553 348.221 126.364C348.224 126.175 348.275 125.989 348.369 125.825C348.463 125.661 348.597 125.523 348.758 125.425C352.067 121.79 357.589 119.562 363.151 117.957C367.369 116.74 374.724 113.588 379.324 114.014C383.78 114.426 385.333 119.954 384.68 122.639Z" fill="#1E1E1E"/>
<path d="M318.631 106.748C317.045 109.856 316.758 113.466 317.832 116.785C318.925 120.079 320.971 122.975 323.711 125.106C330.433 130.494 339.683 131.235 348.297 131.16C355.846 131.095 363.385 130.578 370.872 129.613C373.381 129.391 375.847 128.818 378.197 127.912C381.009 126.696 383.479 124.465 384.48 121.57C385.481 118.675 384.77 115.129 382.393 113.197C380.305 111.5 377.425 111.266 374.738 111.105L359.365 110.181C360.884 108.644 362.906 107.775 364.756 106.657C367.21 105.175 368.84 102.686 370.624 100.442C373.373 97.1564 376.364 94.0812 379.572 91.242C380.072 94.112 381.888 96.4688 384.024 98.449C386.161 100.429 388.624 102.023 390.845 103.909C396.224 108.475 400.097 114.673 405.755 118.89C409.646 117.868 413.284 116.052 416.44 113.556L414.242 109.573C414.058 109.163 413.773 108.807 413.413 108.539C412.791 108.156 411.988 108.354 411.266 108.245C409.334 107.956 408.491 105.726 407.733 103.926C405.652 98.9841 401.668 95.1501 398.266 91.006C395.755 87.9469 393.527 84.6658 391.61 81.2031C390.468 79.1379 389.421 76.9876 387.87 75.2084C386.319 73.4292 384.146 72.0304 381.785 72.0254C379.7 72.021 377.776 73.0798 375.983 74.1448C370.522 77.3888 365.267 80.9687 360.25 84.864C357.624 86.9026 355.014 89.0564 351.934 90.3065C350.637 90.8327 349.27 91.1924 348.026 91.8327C345.846 92.9543 344.192 94.8518 342.412 96.5363C336.062 102.544 327.367 106.437 318.631 106.748Z" fill="#3F3D56"/>
<path d="M350.775 63.986C350.703 65.8225 350.313 67.6325 349.62 69.3349C349.269 70.184 348.747 70.9517 348.086 71.59C347.426 72.2284 346.641 72.7239 345.78 73.0454C344.558 73.3728 343.277 73.4144 342.036 73.1669C340.954 73.0539 339.911 72.6987 338.985 72.1277C337.544 71.1367 336.825 69.3684 336.563 67.6378C336.302 65.9093 336.419 64.1432 336.251 62.4021C336.088 60.9959 335.82 59.6037 335.451 58.237C335.338 57.7824 335.223 57.3298 335.109 56.8773C334.998 56.4247 334.889 55.9722 334.789 55.5197C334.697 55.0943 334.611 54.6669 334.537 54.2374C334.477 53.875 334.422 53.5104 334.382 53.1438C334.346 52.0568 334.165 50.9796 333.844 49.9403C333.543 49.2663 333.166 48.6288 332.721 48.04C332.53 47.7677 332.346 47.4953 332.176 47.2125C331.685 46.4774 331.457 45.5981 331.529 44.7172C331.549 44.581 331.582 44.447 331.627 44.317C331.644 44.2667 331.663 44.2165 331.684 44.1683C331.872 44.1171 332.046 44.0207 332.188 43.8874C332.331 43.7541 332.439 43.588 332.503 43.4035C332.575 43.0071 332.541 42.5988 332.405 42.2198C332.248 41.6902 332.034 41.1794 331.766 40.6966C331.59 40.3781 330.993 39.8041 330.988 39.4395C330.98 38.7062 332.413 38.1154 332.993 37.8263C334.765 36.9392 336.74 36.5386 338.717 36.6656C339.985 36.7514 341.359 37.1411 342.059 38.2034C342.688 39.1608 342.604 40.4012 342.872 41.5137C342.9 41.6754 342.969 41.8274 343.071 41.9558C343.208 42.0803 343.38 42.1594 343.563 42.182C343.874 42.2438 344.192 42.2565 344.506 42.2197H344.508C344.591 42.2132 344.674 42.2013 344.755 42.1841C345.245 42.0938 345.708 41.894 346.109 41.5996C346.369 41.5304 346.631 41.4739 346.895 41.4299C346.905 41.4288 346.916 41.4267 346.926 41.4236C347.976 44.736 348.112 48.2872 348.971 51.6604C349.396 53.3386 350.006 54.9958 350.092 56.7222C350.098 56.7976 350.1 56.8751 350.102 56.9527C350.115 57.5079 350.071 58.0673 350.094 58.6204C350.102 58.8695 350.13 59.1175 350.178 59.3621C350.272 59.7554 350.388 60.143 350.528 60.5228L350.534 60.5416C350.574 60.6631 350.611 60.7868 350.643 60.9104C350.666 61.0005 350.687 61.0885 350.704 61.1785L350.706 61.1848C350.861 62.1106 350.884 63.0537 350.775 63.986Z" fill="#FBBEBE"/>
<path d="M336.07 42.3221C342.897 42.3221 348.432 36.7878 348.432 29.9609C348.432 23.1339 342.897 17.5996 336.07 17.5996C329.243 17.5996 323.709 23.1339 323.709 29.9609C323.709 36.7878 329.243 42.3221 336.07 42.3221Z" fill="#FBBEBE"/>
<path d="M414.55 97.31C414.191 93.9376 412.993 90.7089 411.063 87.9197C411.384 89.8262 411.705 91.7321 412.027 93.6373C411.627 93.7531 411.202 93.7495 410.803 93.6271C410.405 93.5047 410.051 93.2686 409.785 92.948C409.265 92.298 408.867 91.5591 408.61 90.767C407.206 87.2807 405.369 83.9844 403.144 80.9555C395.275 80.2997 387.495 77.0376 380.575 73.2349C373.653 69.4344 367.175 64.8775 360.345 60.9156C359.161 60.1998 357.927 59.5697 356.653 59.0299C354.516 58.173 352.117 57.7289 350.091 56.7211C349.955 56.6541 349.819 56.5828 349.685 56.5095C349.227 56.2606 348.793 55.9695 348.39 55.64C348.172 55.4629 347.965 55.2726 347.77 55.0701C346.759 53.8941 345.957 52.5534 345.4 51.1062C344.313 48.701 343.925 45.7992 342.84 43.394C343.339 42.9278 343.899 42.5324 344.505 42.2186H344.508C344.596 42.1725 344.684 42.1285 344.774 42.0867C345.203 41.8844 345.65 41.721 346.108 41.5985C346.368 41.5293 346.63 41.4728 346.894 41.4288C346.905 41.4277 346.915 41.4256 346.925 41.4225C348.15 41.223 349.404 41.3222 350.581 41.7116C352.304 42.2941 353.755 43.4569 355.203 44.5568C357.555 46.2138 359.811 48.0031 361.96 49.9161C363.154 51.06 364.244 52.3171 365.528 53.3563C366.595 54.18 367.72 54.9257 368.895 55.5877C375.844 59.7276 382.795 63.8669 389.746 68.0055C392.098 69.4071 394.453 70.8087 396.754 72.2921C400.248 74.5465 403.617 76.9894 406.984 79.4302C408.968 80.8674 410.952 82.3054 412.934 83.7441C413.585 84.159 414.156 84.6869 414.621 85.3028C415.032 86.0021 415.287 86.7818 415.369 87.5886C415.867 90.8483 415.586 94.1796 414.55 97.31Z" fill="#FBBEBE"/>
<path d="M353.839 73.2819C353.006 77.0217 349.226 79.2824 347.25 82.5675C344.795 86.6446 345.796 91.3838 346.718 96.0538C345.034 97.5058 343.348 98.9577 341.662 100.41C340.732 101.208 339.802 102.01 338.801 102.716C337.34 103.695 335.814 104.571 334.233 105.339C332.741 106.106 331.25 106.874 329.758 107.642C328.371 108.422 326.902 109.044 325.377 109.498C322.438 110.253 319.316 109.725 316.408 108.851C316.065 108.761 315.735 108.626 315.427 108.451C315.246 108.343 315.088 108.199 314.962 108.03C314.675 107.516 314.571 106.92 314.667 106.339C314.962 101.445 316.159 96.653 317.351 91.8971C317.988 89.0439 318.844 86.2441 319.913 83.5229C320.961 81.1911 322.166 78.933 323.519 76.764C325.012 74.0349 326.781 71.4662 328.798 69.0979C329.78 68.1864 330.607 67.1206 331.246 65.9426C331.989 64.2456 331.702 62.2992 331.853 60.4513C331.969 59.0629 332.337 57.7074 332.94 56.4517V56.4496C333.263 55.7733 333.652 55.1304 334.101 54.5305C334.304 55.004 334.508 55.4768 334.711 55.9489C334.845 56.259 334.978 56.5684 335.109 56.8771C335.281 57.2751 335.451 57.6718 335.62 58.0671C336.108 59.2027 336.596 60.3375 337.083 61.4717C337.609 62.9002 338.358 64.2361 339.303 65.4294C339.735 66.0404 340.319 66.529 340.996 66.8474C341.673 67.1657 342.421 67.303 343.168 67.2458C343.914 67.1886 344.632 66.9389 345.253 66.521C345.874 66.1031 346.376 65.5314 346.71 64.8616C347.414 63.6114 347.924 62.2614 348.222 60.8578C348.636 59.1489 348.693 57.373 348.39 55.641C347.885 52.3055 346.467 48.8988 345.436 45.8001C345.016 44.7669 344.773 43.6706 344.717 42.5569C344.719 42.4317 344.732 42.307 344.755 42.1839C344.761 42.1525 344.767 42.119 344.774 42.0876C345.203 41.8853 345.65 41.722 346.108 41.5994C346.368 41.5303 346.63 41.4737 346.894 41.4297C347.801 46.3407 348.71 51.2516 349.62 56.1626C349.641 56.2779 349.664 56.3931 349.685 56.5104C349.815 57.2144 349.947 57.9183 350.093 58.6202C350.225 59.2571 350.368 59.8919 350.527 60.5226L350.533 60.5414C350.588 60.7552 350.644 60.9668 350.703 61.1784L350.705 61.1846C350.866 61.7629 351.047 62.337 351.25 62.9026C352.482 66.3114 354.629 69.7432 353.839 73.2819Z" fill="#22323F"/>
<path d="M404.006 125.836C403.967 126.557 404.107 127.276 404.413 127.929C405.186 129.343 407.042 129.665 408.649 129.797C418.032 130.568 427.472 130.281 436.791 128.939C437.296 128.905 437.787 128.753 438.223 128.495C439.548 127.566 438.731 125.302 437.285 124.577C435.838 123.853 434.121 124.027 432.534 123.714C430.957 123.317 429.455 122.665 428.087 121.785C424.868 119.936 421.696 118.007 418.571 116C416.71 114.805 414.514 113.53 412.418 114.239C406.742 116.159 403.969 119.713 404.006 125.836Z" fill="#3F3D56"/>
<path d="M334.837 55.256V55.2581C334.822 55.3461 334.807 55.432 334.788 55.5179C334.765 55.6604 334.738 55.805 334.711 55.9474C334.451 57.2778 334.133 58.6019 333.766 59.9177C332.76 63.5527 331.413 67.1291 330.076 70.6531C326.49 80.1021 322.902 89.5518 319.314 99.0023C318.409 101.382 317.506 103.764 316.477 106.096C316.133 106.874 315.779 107.657 315.427 108.449C314.166 111.284 312.955 114.211 312.553 117.228C312.178 119.213 312.135 121.247 312.425 123.247C312.827 125.225 314.028 127.157 315.907 127.888C316.825 128.246 318.138 128.726 317.887 129.679C317.751 130.203 317.156 130.458 316.621 130.546C315.916 130.659 315.194 130.615 314.508 130.417C313.821 130.219 313.187 129.873 312.649 129.403C311.646 128.512 310.875 127.127 309.54 126.979C308.616 126.878 307.765 127.431 306.919 127.819C303.466 129.396 299.444 128.292 295.817 127.171C296.102 125.703 297.577 124.735 299.041 124.441C300.506 124.146 302.021 124.355 303.514 124.316C303.993 124.341 304.467 124.219 304.874 123.966C305.239 123.631 305.494 123.195 305.607 122.713C306.57 119.862 307.285 116.933 307.747 113.959C308.228 110.852 308.43 107.697 309.117 104.628C309.651 102.233 310.476 99.9137 311.185 97.5629C312.554 92.7229 313.678 87.8168 314.554 82.8635C314.996 80.8056 315.313 78.7227 315.503 76.6263C315.622 74.8874 315.566 73.14 315.733 71.4074C316.014 69.1531 316.485 66.9266 317.139 64.7511C317.78 62.3774 318.42 60.005 319.06 57.634C320.009 54.1247 321.028 50.4791 323.433 47.7513C324.268 46.791 325.292 46.0124 326.44 45.4639C327.589 44.9154 328.838 44.6086 330.11 44.5625C330.587 44.5619 331.062 44.6132 331.528 44.7154C331.606 44.7343 331.683 44.7531 331.761 44.7741C332.269 44.9068 332.756 45.1084 333.209 45.3733C333.95 44.9019 334.327 45.0674 334.82 45.7944C335.251 46.5638 335.455 47.4403 335.406 48.3212C335.448 50.646 335.257 52.9692 334.837 55.256Z" fill="#FBBEBE"/>
<path d="M335.651 58.0353L335.62 58.0667L335.45 58.2365L333.766 59.9188L332.94 56.4514L330.11 44.5636C330.587 44.5631 331.062 44.6143 331.528 44.7166C331.548 44.5804 331.581 44.4464 331.627 44.3164L331.761 44.7752L332.72 48.0394L334.537 54.2368L334.836 55.2572V55.2593L335.651 58.0353Z" fill="#22323F"/>
<path d="M346.341 20.1093C346.34 21.2101 346.121 22.2998 345.699 23.3161C345.276 24.3324 344.657 25.2555 343.877 26.0325C343.595 26.3153 343.292 26.5771 342.972 26.8157C341.526 27.9056 339.765 28.4955 337.954 28.4964H327.903C325.682 28.493 323.553 27.6082 321.983 26.0365C320.414 24.4648 319.533 22.3345 319.533 20.1134C319.533 17.8924 320.414 15.7621 321.983 14.1903C323.553 12.6186 325.682 11.7339 327.903 11.7305H337.954C340.175 11.7363 342.304 12.6206 343.875 14.1905C345.447 15.7603 346.333 17.8882 346.341 20.1093Z" fill="#2F2E41"/>
<path d="M355.765 20.7425C360.509 20.7425 364.355 16.8967 364.355 12.1525C364.355 7.40838 360.509 3.5625 355.765 3.5625C351.021 3.5625 347.175 7.40838 347.175 12.1525C347.175 16.8967 351.021 20.7425 355.765 20.7425Z" fill="#2F2E41"/>
<path opacity="0.1" d="M355.555 3.5625C355.45 3.5625 355.345 3.56668 355.241 3.57044C357.463 3.65123 359.567 4.59078 361.11 6.1914C362.654 7.79202 363.516 9.92894 363.516 12.1525C363.516 14.3761 362.654 16.513 361.11 18.1136C359.567 19.7143 357.463 20.6538 355.241 20.7346C355.345 20.7384 355.45 20.7425 355.555 20.7425C357.833 20.7425 360.018 19.8375 361.629 18.2266C363.24 16.6156 364.145 14.4307 364.145 12.1525C364.145 9.87431 363.24 7.6894 361.629 6.07846C360.018 4.46752 357.833 3.5625 355.555 3.5625Z" fill="#1E1E1E"/>
<path opacity="0.1" d="M314.7 3.5625C314.806 3.5625 314.91 3.56668 315.014 3.57044C312.792 3.65123 310.688 4.59078 309.145 6.1914C307.601 7.79202 306.739 9.92894 306.739 12.1525C306.739 14.3761 307.601 16.513 309.145 18.1136C310.688 19.7143 312.792 20.6538 315.014 20.7346C314.91 20.7384 314.806 20.7425 314.7 20.7425C312.423 20.7405 310.24 19.8346 308.631 18.2239C307.022 16.6132 306.118 14.4294 306.118 12.1525C306.118 9.87562 307.022 7.69186 308.631 6.08113C310.24 4.47041 312.423 3.5645 314.7 3.5625Z" fill="#1E1E1E"/>
<path opacity="0.1" d="M342.971 26.8164C341.525 27.9063 339.764 28.4962 337.954 28.4971H327.902C326.092 28.4962 324.331 27.9063 322.885 26.8164H342.971Z" fill="#1E1E1E"/>
<path d="M407.88 89.0583C407.88 89.0583 410.045 95.2982 412.027 93.6368L410.448 85.4805L407.88 89.0583Z" fill="#FBBEBE"/>
<path d="M671.402 279.35C673.419 280.083 675.578 280.338 677.71 280.094C679.843 279.851 681.889 279.115 683.689 277.945C685.488 276.775 686.991 275.204 688.08 273.354C689.168 271.505 689.812 269.427 689.96 267.286C690.109 265.145 689.759 262.999 688.936 261.017C688.114 259.034 686.842 257.27 685.222 255.863C683.601 254.456 681.676 253.444 679.598 252.908C677.52 252.372 675.346 252.326 673.247 252.773L673.594 259.906L670.219 253.793C666.907 255.349 664.349 258.157 663.106 261.598C662.664 262.804 662.396 264.066 662.309 265.347C662.096 268.352 662.868 271.345 664.509 273.872C666.15 276.399 668.569 278.322 671.402 279.35Z" fill="#1DCEFD"/>
<path d="M688.099 362.075C686.908 356.009 692.069 350.631 697.168 347.136C702.267 343.64 708.224 340.206 709.964 334.274C712.464 325.749 705.017 317.941 699.22 311.208C694.92 306.212 691.227 300.723 688.218 294.857C687.012 292.505 685.904 290.046 685.587 287.422C685.13 283.644 686.344 279.883 687.567 276.279C691.642 264.271 695.998 252.363 700.636 240.557" stroke="#3F3D56" stroke-miterlimit="10"/>
<path d="M671.973 277.514C673.99 278.247 676.15 278.502 678.282 278.258C680.414 278.015 682.46 277.279 684.26 276.109C686.059 274.94 687.562 273.368 688.651 271.518C689.739 269.669 690.383 267.591 690.532 265.45C690.68 263.309 690.33 261.163 689.507 259.181C688.685 257.198 687.414 255.434 685.793 254.027C684.173 252.62 682.248 251.608 680.169 251.072C678.091 250.536 675.917 250.49 673.818 250.937L674.165 258.07L670.79 251.957C667.479 253.513 664.92 256.321 663.677 259.763C663.236 260.968 662.967 262.23 662.88 263.511C662.667 266.516 663.439 269.509 665.08 272.036C666.721 274.563 669.141 276.486 671.973 277.514V277.514Z" stroke="#3F3D56" stroke-miterlimit="10"/>
<path d="M686.406 238.093C687.197 235.909 688.526 233.959 690.269 232.424C692.012 230.888 694.113 229.816 696.38 229.306L697.521 236.086L699.636 228.965C702.573 229.008 705.42 229.984 707.767 231.751C710.113 233.519 711.837 235.986 712.69 238.797C713.543 241.608 713.48 244.617 712.511 247.39C711.542 250.163 709.717 252.556 707.299 254.224C704.882 255.892 701.996 256.749 699.06 256.67C696.124 256.592 693.288 255.582 690.963 253.787C688.638 251.992 686.944 249.504 686.124 246.683C685.305 243.863 685.404 240.854 686.406 238.093Z" fill="#1DCEFD"/>
<path d="M687.166 235.646C687.958 233.462 689.286 231.512 691.03 229.976C692.773 228.441 694.874 227.368 697.141 226.858L698.282 233.639L700.397 226.518C703.334 226.561 706.181 227.537 708.527 229.304C710.874 231.071 712.598 233.539 713.451 236.349C714.303 239.16 714.241 242.169 713.272 244.942C712.303 247.715 710.478 250.109 708.06 251.777C705.642 253.445 702.757 254.302 699.821 254.223C696.884 254.144 694.049 253.135 691.724 251.34C689.399 249.545 687.704 247.057 686.885 244.236C686.066 241.415 686.164 238.407 687.166 235.646H687.166Z" stroke="#3F3D56" stroke-miterlimit="10"/>
<path d="M696.788 311.347C699.987 312.507 703.501 312.45 706.66 311.186C709.819 309.922 712.403 307.539 713.918 304.493C715.434 301.446 715.776 297.949 714.878 294.667C713.981 291.384 711.907 288.547 709.052 286.696L707.427 292.168L706.274 285.308C706.263 285.302 706.251 285.298 706.239 285.294C704.528 284.673 702.711 284.394 700.893 284.475C699.074 284.555 697.289 284.993 695.64 285.764C693.991 286.534 692.509 287.622 691.281 288.966C690.052 290.309 689.1 291.881 688.48 293.592C687.859 295.304 687.581 297.12 687.663 298.939C687.744 300.758 688.184 302.542 688.955 304.191C689.727 305.84 690.816 307.32 692.16 308.548C693.504 309.776 695.076 310.727 696.788 311.347H696.788Z" fill="#1DCEFD"/>
<path d="M697.447 308.866C700.646 310.026 704.16 309.969 707.319 308.705C710.478 307.441 713.062 305.059 714.578 302.012C716.093 298.966 716.435 295.468 715.537 292.186C714.64 288.904 712.566 286.067 709.711 284.215L708.086 289.688L706.933 282.827C706.922 282.822 706.91 282.817 706.898 282.814C705.187 282.192 703.37 281.914 701.552 281.994C699.733 282.075 697.948 282.513 696.299 283.283C694.65 284.054 693.169 285.142 691.94 286.485C690.711 287.828 689.76 289.401 689.139 291.112C688.518 292.823 688.24 294.64 688.322 296.458C688.404 298.277 688.843 300.062 689.614 301.71C690.386 303.359 691.475 304.84 692.819 306.068C694.163 307.295 695.736 308.246 697.447 308.866H697.447Z" stroke="#3F3D56" stroke-miterlimit="10"/>
<path d="M682.362 334.359C682.912 337.488 684.521 340.334 686.92 342.417C689.319 344.501 692.361 345.697 695.537 345.804C698.712 345.911 701.828 344.923 704.362 343.005C706.895 341.087 708.693 338.357 709.452 335.271C710.211 332.186 709.886 328.933 708.532 326.059C707.178 323.184 704.877 320.863 702.014 319.484C699.151 318.105 695.901 317.752 692.81 318.485C689.718 319.217 686.972 320.991 685.032 323.508L691.206 332.8L682.77 327.868C682.116 329.968 681.976 332.194 682.362 334.359Z" fill="#1DCEFD"/>
<path d="M682.933 332.523C683.483 335.652 685.092 338.498 687.491 340.582C689.889 342.665 692.932 343.861 696.108 343.968C699.283 344.075 702.399 343.087 704.933 341.169C707.466 339.251 709.263 336.521 710.023 333.435C710.782 330.35 710.457 327.097 709.103 324.223C707.749 321.348 705.447 319.027 702.585 317.648C699.722 316.269 696.472 315.916 693.38 316.649C690.288 317.381 687.542 319.155 685.603 321.672L691.777 330.964L683.341 326.032C682.687 328.132 682.547 330.358 682.933 332.523V332.523Z" stroke="#3F3D56" stroke-miterlimit="10"/>
<path d="M6.99697 313.107C8.32217 313.589 9.74116 313.756 11.1421 313.596C12.543 313.436 13.8876 312.952 15.0698 312.184C16.2521 311.415 17.2397 310.383 17.9548 309.167C18.6699 307.952 19.0929 306.587 19.1906 305.181C19.2883 303.774 19.0579 302.364 18.5176 301.061C17.9774 299.759 17.142 298.6 16.0773 297.675C15.0126 296.751 13.7477 296.086 12.3824 295.734C11.017 295.382 9.58852 295.351 8.20945 295.645L8.43734 300.332L6.22021 296.315C4.04422 297.338 2.36317 299.182 1.54649 301.444C1.25645 302.236 1.08013 303.065 1.02279 303.907C0.882839 305.881 1.39034 307.847 2.46839 309.508C3.54643 311.168 5.13626 312.431 6.99697 313.107Z" fill="#1DCEFD"/>
<path d="M17.9676 367.459C17.185 363.473 20.5764 359.94 23.9263 357.644C27.2762 355.347 31.1904 353.091 32.3334 349.193C33.976 343.592 29.083 338.462 25.2746 334.039C22.4491 330.756 20.0227 327.15 18.0461 323.296C17.1868 321.782 16.6015 320.128 16.3172 318.411C16.0169 315.928 16.8145 313.457 17.6181 311.089C20.2952 303.2 23.1574 295.376 26.2049 287.619" stroke="#3F3D56" stroke-miterlimit="10"/>
<path d="M7.37149 311.9C8.69669 312.382 10.1157 312.549 11.5166 312.389C12.9175 312.229 14.2621 311.745 15.4443 310.977C16.6266 310.208 17.6142 309.176 18.3293 307.96C19.0444 306.745 19.4674 305.38 19.5651 303.974C19.6628 302.567 19.4324 301.157 18.8921 299.854C18.3519 298.552 17.5165 297.393 16.4518 296.468C15.3871 295.544 14.1222 294.879 12.7569 294.527C11.3915 294.175 9.96304 294.144 8.58397 294.438L8.81186 299.125L6.59472 295.108C4.41873 296.131 2.73768 297.975 1.921 300.237C1.63097 301.029 1.45465 301.858 1.3973 302.7C1.25734 304.674 1.76484 306.64 2.84289 308.301C3.92094 309.961 5.51077 311.224 7.37149 311.9V311.9Z" stroke="#3F3D56" stroke-miterlimit="10"/>
<path d="M16.8545 286.001C17.3746 284.566 18.2475 283.285 19.3927 282.276C20.5379 281.267 21.9187 280.563 23.4077 280.228L24.1574 284.683L25.5472 280.004C27.4769 280.033 29.3476 280.674 30.8892 281.835C32.4307 282.996 33.5634 284.617 34.1237 286.464C34.684 288.31 34.6429 290.287 34.0063 292.109C33.3697 293.931 32.1706 295.504 30.5821 296.6C28.9936 297.696 27.0978 298.258 25.1686 298.207C23.2394 298.155 21.3765 297.492 19.8489 296.312C18.3213 295.133 17.208 293.499 16.6698 291.645C16.1316 289.792 16.1963 287.815 16.8545 286.001Z" fill="#1DCEFD"/>
<path d="M17.3541 284.392C17.8741 282.957 18.747 281.676 19.8922 280.667C21.0374 279.658 22.4182 278.954 23.9072 278.618L24.6569 283.073L26.0467 278.395C27.9764 278.423 29.8471 279.064 31.3887 280.225C32.9303 281.386 34.063 283.007 34.6232 284.854C35.1835 286.701 35.1424 288.678 34.5058 290.5C33.8692 292.322 32.6701 293.894 31.0816 294.99C29.4931 296.086 27.5973 296.649 25.6681 296.597C23.7389 296.546 21.876 295.882 20.3484 294.703C18.8208 293.524 17.7075 291.889 17.1693 290.036C16.6311 288.183 16.6958 286.206 17.3541 284.392V284.392Z" stroke="#3F3D56" stroke-miterlimit="10"/>
<path d="M23.676 334.13C25.7777 334.892 28.0864 334.854 30.162 334.024C32.2377 333.194 33.9352 331.628 34.931 329.627C35.9268 327.625 36.1513 325.327 35.5617 323.171C34.972 321.014 33.6094 319.15 31.7337 317.934L30.6658 321.529L29.9085 317.022C29.901 317.018 29.8933 317.015 29.8853 317.013C28.7612 316.604 27.5675 316.421 26.3725 316.474C25.1775 316.526 24.0046 316.814 22.9209 317.32C21.8371 317.827 20.8637 318.542 20.0564 319.424C19.2491 320.307 18.6236 321.34 18.2156 322.464C17.8077 323.589 17.6254 324.783 17.6791 325.978C17.7328 327.173 18.0214 328.345 18.5285 329.429C19.0356 330.512 19.7512 331.485 20.6345 332.291C21.5177 333.098 22.5513 333.723 23.676 334.13Z" fill="#1DCEFD"/>
<path d="M24.1093 332.5C26.211 333.263 28.5197 333.225 30.5953 332.395C32.671 331.564 34.3685 329.999 35.3643 327.997C36.3601 325.996 36.5846 323.698 35.995 321.541C35.4053 319.385 34.0427 317.521 32.167 316.304L31.0991 319.9L30.3418 315.392C30.3343 315.389 30.3266 315.386 30.3186 315.384C29.1947 314.976 28.0015 314.794 26.8071 314.847C25.6128 314.9 24.4406 315.189 23.3576 315.695C21.1704 316.718 19.479 318.568 18.6556 320.837C17.8322 323.107 17.9442 325.611 18.967 327.798C19.9897 329.986 21.8395 331.677 24.1093 332.5V332.5Z" stroke="#3F3D56" stroke-miterlimit="10"/>
<path d="M14.1975 349.249C14.5588 351.305 15.6162 353.175 17.1923 354.544C18.7683 355.913 20.7672 356.698 22.8537 356.769C24.9402 356.839 26.9874 356.19 28.652 354.93C30.3166 353.67 31.4973 351.876 31.9962 349.849C32.495 347.821 32.2817 345.684 31.3919 343.796C30.5021 341.907 28.99 340.382 27.1092 339.476C25.2284 338.57 23.0932 338.338 21.0618 338.819C19.0304 339.301 17.2262 340.466 15.952 342.12L20.0084 348.225L14.4658 344.985C14.036 346.364 13.944 347.827 14.1975 349.249Z" fill="#1DCEFD"/>
<path d="M14.5725 348.042C14.9338 350.098 15.9912 351.968 17.5673 353.337C19.1433 354.706 21.1422 355.491 23.2287 355.562C25.3152 355.632 27.3624 354.983 29.027 353.723C30.6916 352.463 31.8723 350.669 32.3712 348.641C32.87 346.614 32.6567 344.477 31.7669 342.589C30.8771 340.7 29.365 339.175 27.4842 338.269C25.6034 337.363 23.4682 337.131 21.4368 337.612C19.4054 338.094 17.6012 339.259 16.327 340.913L20.3834 347.018L14.8408 343.778C14.411 345.157 14.319 346.62 14.5725 348.042V348.042Z" stroke="#3F3D56" stroke-miterlimit="10"/>
<path d="M321.229 227.127C327.48 227.127 332.548 220.568 332.548 212.478C332.548 204.388 327.48 197.83 321.229 197.83C314.977 197.83 309.91 204.388 309.91 212.478C309.91 220.568 314.977 227.127 321.229 227.127Z" fill="#1DCEFD"/>
<path d="M382.819 227.459C389.07 227.459 394.138 220.9 394.138 212.81C394.138 204.72 389.07 198.162 382.819 198.162C376.567 198.162 371.5 204.72 371.5 212.81C371.5 220.9 376.567 227.459 382.819 227.459Z" fill="#1DCEFD"/>
<path d="M374.162 256.089C374.162 262.707 364.92 268.074 353.521 268.074C342.122 268.074 332.88 262.707 332.88 256.089C332.88 250.356 339.812 245.562 349.073 244.39C350.548 244.196 352.034 244.1 353.521 244.104C356.013 244.096 358.499 244.364 360.932 244.903C368.669 246.627 374.162 250.988 374.162 256.089Z" fill="#2F2E41"/>
<path d="M323.892 223.797C330.144 223.797 335.212 217.238 335.212 209.148C335.212 201.058 330.144 194.5 323.892 194.5C317.641 194.5 312.573 201.058 312.573 209.148C312.573 217.238 317.641 223.797 323.892 223.797Z" stroke="#3F3D56" stroke-miterlimit="10"/>
<path d="M385.482 224.129C391.733 224.129 396.801 217.57 396.801 209.48C396.801 201.39 391.733 194.832 385.482 194.832C379.23 194.832 374.163 201.39 374.163 209.48C374.163 217.57 379.23 224.129 385.482 224.129Z" stroke="#3F3D56" stroke-miterlimit="10"/>
<path d="M356.185 264.745C367.584 264.745 376.826 259.379 376.826 252.76C376.826 246.141 367.584 240.775 356.185 240.775C344.785 240.775 335.544 246.141 335.544 252.76C335.544 259.379 344.785 264.745 356.185 264.745Z" stroke="#3F3D56" stroke-miterlimit="10"/>
<path d="M361.179 245.902C361.184 246.74 360.87 247.547 360.3 248.161C360.031 248.455 359.704 248.69 359.34 248.851C358.975 249.012 358.581 249.097 358.183 249.098H351.524C350.704 249.07 349.928 248.718 349.367 248.119C348.805 247.52 348.504 246.723 348.528 245.902C348.525 245.253 348.715 244.618 349.074 244.077C350.548 243.87 352.034 243.768 353.522 243.772C356.017 243.763 358.505 244.05 360.933 244.624C361.097 245.03 361.181 245.464 361.179 245.902Z" fill="white"/>
<path d="M323.892 208.483C325.73 208.483 327.221 206.992 327.221 205.153C327.221 203.315 325.73 201.824 323.892 201.824C322.053 201.824 320.562 203.315 320.562 205.153C320.562 206.992 322.053 208.483 323.892 208.483Z" fill="white"/>
<path d="M385.815 208.483C387.653 208.483 389.144 206.992 389.144 205.153C389.144 203.315 387.653 201.824 385.815 201.824C383.976 201.824 382.485 203.315 382.485 205.153C382.485 206.992 383.976 208.483 385.815 208.483Z" fill="white"/>
<path opacity="0.3" d="M389.144 239.777C390.982 239.777 392.473 238.287 392.473 236.448C392.473 234.61 390.982 233.119 389.144 233.119C387.305 233.119 385.814 234.61 385.814 236.448C385.814 238.287 387.305 239.777 389.144 239.777Z" fill="#2F2E41"/>
<path opacity="0.3" d="M307.912 239.777C309.751 239.777 311.241 238.287 311.241 236.448C311.241 234.61 309.751 233.119 307.912 233.119C306.074 233.119 304.583 234.61 304.583 236.448C304.583 238.287 306.074 239.777 307.912 239.777Z" fill="#2F2E41"/>
</svg>
