<svg width="50" height="50" viewBox="0 0 77 97" fill="none" xmlns="http://www.w3.org/2000/svg">
<path d="M3.17529 92.9233C2.65771 92.9233 2.23779 92.75 1.91553 92.4033C1.59326 92.0518 1.43213 91.5854 1.43213 91.0044V83.8193C1.43213 83.4922 1.5127 83.1895 1.67383 82.9111C1.83496 82.6328 2.0498 82.4155 2.31836 82.2593C2.58691 82.0981 2.88232 82.0176 3.20459 82.0176H5.69482C5.90479 82.0176 6.12451 82.0322 6.354 82.0615C6.84717 82.125 7.28906 82.252 7.67969 82.4424C8.07031 82.6328 8.40479 82.8721 8.68311 83.1602C8.96143 83.4434 9.17383 83.7656 9.32031 84.127C9.47168 84.4883 9.54736 84.8716 9.54736 85.2769C9.54736 85.4233 9.54248 85.5381 9.53271 85.6211C9.479 86.1973 9.2959 86.6953 8.9834 87.1152L9.0127 87.1519L9.21777 87.2837L9.43018 87.4155L9.51807 87.4961C9.72314 87.667 9.89648 87.8647 10.0381 88.0894C10.1846 88.314 10.2944 88.5557 10.3677 88.8145C10.4409 89.0684 10.4775 89.3369 10.4775 89.6201C10.4775 89.957 10.4263 90.2891 10.3237 90.6162C10.2212 90.9385 10.0625 91.2485 9.84766 91.5464C9.67188 91.7661 9.49365 91.9541 9.31299 92.1104C8.99072 92.3887 8.63672 92.5938 8.25098 92.7256C7.86523 92.8574 7.41846 92.9233 6.91064 92.9233H3.17529ZM4.91846 85.98H5.70947C5.85596 85.98 5.99023 85.9238 6.1123 85.8115C6.21484 85.7334 6.26611 85.6284 6.26611 85.4966C6.26611 85.3647 6.20996 85.2549 6.09766 85.167C5.98535 85.0693 5.84619 85.0205 5.68018 85.0205H4.91846V85.98ZM4.89648 89.9058H6.53711C6.66895 89.9058 6.78125 89.8618 6.87402 89.7739C6.9668 89.686 7.01318 89.5713 7.01318 89.4297C7.01318 89.2783 6.96924 89.1514 6.88135 89.0488C6.79346 88.9414 6.67871 88.8877 6.53711 88.8877H4.89648V89.9058ZM14.5059 93.0405C13.3535 92.9087 12.499 92.5327 11.9424 91.9126C11.3906 91.2876 11.1147 90.3989 11.1147 89.2466V86.3242C11.1147 86.0117 11.1904 85.7285 11.3418 85.4746C11.4932 85.2207 11.6958 85.0205 11.9497 84.874C12.2085 84.7227 12.4917 84.647 12.7993 84.647C13.2583 84.647 13.6489 84.813 13.9712 85.145C14.2983 85.4722 14.4619 85.875 14.4619 86.3535V89.2319C14.4619 89.5151 14.5278 89.7251 14.6597 89.8618C14.772 89.9985 14.9258 90.0889 15.1211 90.1328C15.4824 90.1328 15.7388 90.0425 15.8901 89.8618C16.0171 89.7349 16.0806 89.5249 16.0806 89.2319V86.3535C16.0806 86.0459 16.1562 85.7627 16.3076 85.5039C16.459 85.2402 16.6616 85.0327 16.9155 84.8813C17.1743 84.7251 17.4575 84.647 17.7651 84.647C18.0776 84.647 18.3608 84.7227 18.6147 84.874C18.8687 85.0205 19.0688 85.2207 19.2153 85.4746C19.3667 85.7285 19.4424 86.0117 19.4424 86.3242V89.2466C19.4424 90.0181 19.3228 90.6699 19.0835 91.2021C18.8442 91.7295 18.4731 92.147 17.9702 92.4546C17.4673 92.7573 16.8276 92.9526 16.0513 93.0405C15.7534 93.0747 15.4995 93.0918 15.2896 93.0918C15.0649 93.0918 14.8037 93.0747 14.5059 93.0405ZM21.9546 93.0112C21.4956 93.0112 21.1074 92.8525 20.79 92.5352C20.4727 92.2178 20.314 91.8125 20.314 91.3193V82.7061C20.314 82.252 20.4751 81.8613 20.7974 81.5342C21.1196 81.207 21.5103 81.0386 21.9692 81.0288C22.2817 81.0288 22.5649 81.1069 22.8188 81.2632C23.0776 81.4146 23.2803 81.6196 23.4268 81.8784C23.5732 82.1323 23.6465 82.4131 23.6465 82.7207V84.896C23.6709 84.8862 23.7563 84.8569 23.9028 84.8081C24.3667 84.6567 24.7964 84.5811 25.1919 84.5811C25.4116 84.5811 25.6411 84.6079 25.8804 84.6616C26.4272 84.7642 26.9155 84.9595 27.3452 85.2476C27.7749 85.5308 28.1338 85.8945 28.4219 86.3389C28.71 86.7832 28.9126 87.2886 29.0298 87.855C29.0933 88.1626 29.125 88.458 29.125 88.7412C29.125 89.4395 28.9785 90.0938 28.6855 90.7041C28.3975 91.3145 28.0068 91.8198 27.5137 92.2202C27.0205 92.6157 26.4858 92.8647 25.9097 92.9673C25.6265 93.0161 25.3823 93.0405 25.1772 93.0405C24.3813 93.0405 23.7466 92.7817 23.2729 92.2642V92.2056L21.9546 93.0112ZM23.5293 88.8877C23.5342 89.2734 23.6465 89.5859 23.8662 89.8252C24.0859 90.0596 24.3521 90.1768 24.6646 90.1768C24.728 90.1768 24.8086 90.167 24.9062 90.1475C25.0674 90.1133 25.2139 90.0425 25.3457 89.9351C25.4824 89.8276 25.5898 89.686 25.668 89.5103C25.7461 89.3345 25.7876 89.1367 25.7925 88.917C25.7925 88.4873 25.6753 88.1528 25.4409 87.9136C25.2065 87.6743 24.8892 87.5547 24.4888 87.5547C24.2446 87.5986 24.0371 87.7134 23.8662 87.8989C23.7002 88.0796 23.5928 88.314 23.5439 88.6021C23.5342 88.6753 23.5293 88.7705 23.5293 88.8877ZM31.5054 93.0112C31.0464 93.0112 30.6582 92.8525 30.3408 92.5352C30.0234 92.2178 29.8647 91.8125 29.8647 91.3193V82.7061C29.8647 82.252 30.0259 81.8613 30.3481 81.5342C30.6704 81.207 31.061 81.0386 31.52 81.0288C31.8325 81.0288 32.1157 81.1069 32.3696 81.2632C32.6284 81.4146 32.8311 81.6196 32.9775 81.8784C33.124 82.1323 33.1973 82.4131 33.1973 82.7207V84.896C33.2217 84.8862 33.3071 84.8569 33.4536 84.8081C33.9175 84.6567 34.3472 84.5811 34.7427 84.5811C34.9624 84.5811 35.1919 84.6079 35.4312 84.6616C35.978 84.7642 36.4663 84.9595 36.896 85.2476C37.3257 85.5308 37.6846 85.8945 37.9727 86.3389C38.2607 86.7832 38.4634 87.2886 38.5806 87.855C38.644 88.1626 38.6758 88.458 38.6758 88.7412C38.6758 89.4395 38.5293 90.0938 38.2363 90.7041C37.9482 91.3145 37.5576 91.8198 37.0645 92.2202C36.5713 92.6157 36.0366 92.8647 35.4604 92.9673C35.1772 93.0161 34.9331 93.0405 34.728 93.0405C33.9321 93.0405 33.2974 92.7817 32.8237 92.2642V92.2056L31.5054 93.0112ZM33.0801 88.8877C33.085 89.2734 33.1973 89.5859 33.417 89.8252C33.6367 90.0596 33.9028 90.1768 34.2153 90.1768C34.2788 90.1768 34.3594 90.167 34.457 90.1475C34.6182 90.1133 34.7646 90.0425 34.8965 89.9351C35.0332 89.8276 35.1406 89.686 35.2188 89.5103C35.2969 89.3345 35.3384 89.1367 35.3433 88.917C35.3433 88.4873 35.2261 88.1528 34.9917 87.9136C34.7573 87.6743 34.4399 87.5547 34.0396 87.5547C33.7954 87.5986 33.5879 87.7134 33.417 87.8989C33.251 88.0796 33.1436 88.314 33.0947 88.6021C33.085 88.6753 33.0801 88.7705 33.0801 88.8877ZM43.7222 93.0918C42.9019 93.0918 42.1523 92.9038 41.4736 92.5278C40.7998 92.1519 40.2676 91.6416 39.877 90.9971C39.4863 90.3477 39.2886 89.6396 39.2837 88.873C39.2837 88.1064 39.4766 87.3936 39.8623 86.7344C40.2529 86.0703 40.7876 85.5454 41.4663 85.1597C42.145 84.7739 42.897 84.5811 43.7222 84.5811C44.3081 84.5811 44.8525 84.6763 45.3555 84.8667C45.8584 85.0522 46.3101 85.3184 46.7104 85.665C46.9546 85.875 47.167 86.1045 47.3477 86.3535C47.5332 86.6025 47.6846 86.8613 47.8018 87.1299C47.9238 87.3984 48.0142 87.6768 48.0728 87.9648C48.1313 88.2529 48.1606 88.541 48.1606 88.8291C48.1606 89.3125 48.0776 89.7861 47.9116 90.25C47.7505 90.7139 47.5063 91.1411 47.1792 91.5317C46.8521 91.9175 46.459 92.2422 46 92.5059C45.3115 92.8965 44.5522 93.0918 43.7222 93.0918ZM42.5503 88.8584C42.5503 89.2734 42.6626 89.6128 42.8872 89.8765C43.1167 90.1401 43.395 90.272 43.7222 90.272C43.7515 90.272 43.8271 90.2598 43.9492 90.2354C44.4766 90.1279 44.7817 89.7739 44.8647 89.1733C44.8843 89.0171 44.894 88.9072 44.894 88.8438C44.894 88.5557 44.8281 88.3115 44.6963 88.1113C44.457 87.7109 44.1323 87.5107 43.7222 87.5107C43.3169 87.5107 42.9922 87.7109 42.748 88.1113C42.6162 88.3262 42.5503 88.5752 42.5503 88.8584ZM53.1997 93.0918C52.3794 93.0918 51.6299 92.9038 50.9512 92.5278C50.2773 92.1519 49.7451 91.6416 49.3545 90.9971C48.9639 90.3477 48.7661 89.6396 48.7612 88.873C48.7612 88.1064 48.9541 87.3936 49.3398 86.7344C49.7305 86.0703 50.2651 85.5454 50.9438 85.1597C51.6226 84.7739 52.3745 84.5811 53.1997 84.5811C53.7856 84.5811 54.3301 84.6763 54.833 84.8667C55.3359 85.0522 55.7876 85.3184 56.188 85.665C56.4321 85.875 56.6445 86.1045 56.8252 86.3535C57.0107 86.6025 57.1621 86.8613 57.2793 87.1299C57.4014 87.3984 57.4917 87.6768 57.5503 87.9648C57.6089 88.2529 57.6382 88.541 57.6382 88.8291C57.6382 89.3125 57.5552 89.7861 57.3892 90.25C57.228 90.7139 56.9839 91.1411 56.6567 91.5317C56.3296 91.9175 55.9365 92.2422 55.4775 92.5059C54.7891 92.8965 54.0298 93.0918 53.1997 93.0918ZM52.0278 88.8584C52.0278 89.2734 52.1401 89.6128 52.3647 89.8765C52.5942 90.1401 52.8726 90.272 53.1997 90.272C53.229 90.272 53.3047 90.2598 53.4268 90.2354C53.9541 90.1279 54.2593 89.7739 54.3423 89.1733C54.3618 89.0171 54.3716 88.9072 54.3716 88.8438C54.3716 88.5557 54.3057 88.3115 54.1738 88.1113C53.9346 87.7109 53.6099 87.5107 53.1997 87.5107C52.7944 87.5107 52.4697 87.7109 52.2256 88.1113C52.0938 88.3262 52.0278 88.5752 52.0278 88.8584ZM58.8687 92.5938C58.5366 92.2617 58.3706 91.8613 58.3706 91.3926V82.6914C58.3706 82.2422 58.5317 81.854 58.854 81.5269C59.1812 81.1948 59.5718 81.0288 60.0259 81.0288C60.3237 81.0288 60.5996 81.1045 60.8535 81.2559C61.1123 81.4023 61.3149 81.605 61.4614 81.8638C61.6128 82.1177 61.6885 82.3936 61.6885 82.6914V86.8809L62.875 85.3354C63.0068 85.1597 63.1875 85.0034 63.417 84.8667C63.6758 84.73 63.9492 84.6616 64.2373 84.6616C64.4131 84.6616 64.5938 84.6909 64.7793 84.7495C65.1113 84.8618 65.3726 85.0547 65.563 85.3281C65.7583 85.5967 65.856 85.9043 65.856 86.251C65.856 86.5098 65.8022 86.749 65.6948 86.9688C65.5679 87.1982 65.4165 87.4082 65.2407 87.5986L64.4351 88.4409L66.127 90.4185C66.3467 90.6968 66.4565 91.0166 66.4565 91.3779C66.4565 91.6416 66.3979 91.8906 66.2808 92.125C66.188 92.335 66.0488 92.5181 65.8633 92.6743C65.6826 92.8257 65.48 92.9331 65.2554 92.9966C65.1235 93.0356 64.9697 93.0552 64.7939 93.0552C64.5254 93.0552 64.269 92.9941 64.0249 92.8721C63.7808 92.75 63.583 92.5767 63.4316 92.3521L61.6885 89.7886V91.4072C61.6885 91.6318 61.6445 91.8491 61.5566 92.0591C61.4736 92.2642 61.3516 92.4473 61.1904 92.6084C60.8682 92.9307 60.4849 93.0918 60.0405 93.0918C59.5767 93.0918 59.186 92.9258 58.8687 92.5938ZM67.5039 92.4766C66.8594 92.0762 66.5371 91.644 66.5371 91.1802C66.5371 91.0386 66.5591 90.9141 66.603 90.8066C66.686 90.543 66.8423 90.3354 67.0718 90.1841C67.3013 90.0278 67.5796 89.9497 67.9067 89.9497C68.1069 89.9497 68.3511 89.9961 68.6392 90.0889L68.9395 90.1768L69.1519 90.25C69.4839 90.3867 69.7842 90.4722 70.0527 90.5063H70.1406H70.3237C70.4556 90.5063 70.5435 90.4624 70.5874 90.3745C70.5874 90.2231 70.5337 90.1133 70.4263 90.0449C70.4214 90.04 70.4116 90.0352 70.397 90.0303C70.3823 90.0205 70.3677 90.0132 70.353 90.0083C70.3433 89.9985 70.3335 89.9912 70.3237 89.9863L70.1846 89.9351L69.8843 89.8618L69.4961 89.7446L69.2104 89.6714C68.7612 89.5493 68.3877 89.4175 68.0898 89.2759C67.7969 89.1294 67.5649 88.9658 67.394 88.7852C67.228 88.6045 67.0889 88.3848 66.9766 88.126C66.8643 87.8477 66.8081 87.5669 66.8081 87.2837C66.8081 86.8149 66.957 86.3755 67.2549 85.9653C67.5527 85.5503 67.9775 85.2207 68.5293 84.9766C69.0859 84.7324 69.7329 84.6104 70.4702 84.6104C71.0415 84.6104 71.5518 84.6714 72.001 84.7935C72.709 84.9888 73.1899 85.2549 73.4438 85.5918C73.5708 85.7627 73.6343 85.9727 73.6343 86.2217C73.6343 86.4609 73.5586 86.6831 73.4072 86.8882C73.2559 87.0884 73.0508 87.2202 72.792 87.2837C72.6748 87.313 72.5552 87.3276 72.4331 87.3276C72.2427 87.3276 71.9937 87.2886 71.686 87.2104L71.2319 87.1006L71.0122 87.042L70.7705 86.998C70.6924 86.9785 70.6362 86.9688 70.6021 86.9688C70.314 86.9688 70.1504 86.9736 70.1113 86.9834L70.082 87.0127L70.0381 87.0566C70.0039 87.0908 69.9868 87.1226 69.9868 87.1519C69.9868 87.2153 70.0381 87.2837 70.1406 87.3569C70.1602 87.3667 70.1772 87.3765 70.1919 87.3862C70.2065 87.396 70.2236 87.4058 70.2432 87.4155L70.3823 87.4668L70.6021 87.54L71.1294 87.7158L71.5029 87.8257L71.8325 87.9429C72.145 88.0405 72.4771 88.2065 72.8286 88.4409C73.1606 88.6704 73.4121 88.9561 73.583 89.2979C73.7588 89.6348 73.8467 89.9839 73.8467 90.3452C73.8467 91.1069 73.5073 91.7612 72.8286 92.3081C72.1987 92.8159 71.3564 93.0698 70.3018 93.0698C70.165 93.0698 69.9453 93.0601 69.6426 93.0405C68.7393 92.9722 68.0264 92.7842 67.5039 92.4766Z" fill="#1DCEFD"/>
<path d="M54.2161 0H8.79102V35.8098H54.2161C62.5432 35.8098 69.2931 27.7939 69.2931 17.9043C69.2931 8.01596 62.5432 0 54.2161 0Z" fill="#1DCEFD"/>
<path d="M60.0037 35.8096H8.79102V71.6154H60.0037C69.3902 71.6154 76.9999 63.5994 76.9999 53.7111C77.0006 43.8235 69.3908 35.8096 60.0037 35.8096Z" fill="#2F455C"/>
<path d="M26.2772 23.2887L2.02393 22.5073L1.00015 54.2856L25.2534 55.0669L26.2772 23.2887Z" fill="white" stroke="url(#paint0_linear_2474_5844)" stroke-miterlimit="10"/>
<path d="M3.06543 52.7651L4.08992 20.9863C6.87433 21.3744 26.1724 23.2708 26.1724 23.2708L25.1807 55.0383C25.1807 55.0376 5.2864 52.8186 3.06543 52.7651Z" fill="white" stroke="url(#paint1_linear_2474_5844)" stroke-miterlimit="10"/>
<path d="M5.13477 51.2476L6.15725 19.4702C11.7321 20.2491 26.0723 23.2524 26.0723 23.2524L25.1094 55.0117C25.1094 55.0117 9.57536 51.3574 5.13477 51.2476Z" fill="white" stroke="url(#paint2_linear_2474_5844)" stroke-miterlimit="10"/>
<path d="M7.20166 49.7301L8.22415 17.9526C16.5861 19.1197 25.9711 23.2391 25.9711 23.2391L25.0403 54.985C25.0403 54.9857 13.8626 49.8954 7.20166 49.7301Z" fill="white" stroke="url(#paint3_linear_2474_5844)" stroke-miterlimit="10"/>
<path d="M9.26904 48.2143C18.1502 48.4297 24.9724 54.9595 24.9724 54.9595L25.8744 23.2248C25.8744 23.2248 21.4425 17.9906 10.2922 16.4375L9.26904 48.2143Z" fill="white" stroke="url(#paint4_linear_2474_5844)" stroke-miterlimit="10"/>
<path d="M23.5949 55.1005L47.8481 55.8818L48.8719 24.1036L24.6187 23.3222L23.5949 55.1005Z" fill="white" stroke="url(#paint5_linear_2474_5844)" stroke-miterlimit="10"/>
<path d="M45.8741 54.2468L46.9 22.4653C44.0921 22.6768 24.713 23.3199 24.713 23.3199L23.6558 55.0872C23.6558 55.0872 43.6518 54.1571 45.8741 54.2468Z" fill="white" stroke="url(#paint6_linear_2474_5844)" stroke-miterlimit="10"/>
<path d="M43.9074 52.5989L44.9319 20.8188C39.3183 21.2357 24.8134 23.3148 24.8134 23.3148L23.728 55.0662C23.7274 55.0662 39.4682 52.4183 43.9074 52.5989Z" fill="white" stroke="url(#paint7_linear_2474_5844)" stroke-miterlimit="10"/>
<path d="M41.9426 50.9525L42.9651 19.1724C34.5457 19.7987 24.9137 23.3065 24.9137 23.3065L23.7988 55.0478C23.7995 55.0471 35.2817 50.6828 41.9426 50.9525Z" fill="white" stroke="url(#paint8_linear_2474_5844)" stroke-miterlimit="10"/>
<path d="M39.9796 49.3068C31.0984 48.9502 23.8721 55.0262 23.8721 55.0262L25.0177 23.297C25.0177 23.297 29.7741 18.3592 41.0008 17.5254L39.9796 49.3068Z" fill="white" stroke="url(#paint9_linear_2474_5844)" stroke-miterlimit="10"/>
<defs>
<linearGradient id="paint0_linear_2474_5844" x1="13.105" y1="55.4032" x2="14.1756" y2="22.1706" gradientUnits="userSpaceOnUse">
<stop stop-color="#2F455C"/>
<stop offset="1" stop-color="#1DCEFD"/>
</linearGradient>
<linearGradient id="paint1_linear_2474_5844" x1="14.6187" y1="55.4101" x2="14.6187" y2="20.603" gradientUnits="userSpaceOnUse">
<stop stop-color="#2F455C"/>
<stop offset="1" stop-color="#1DCEFD"/>
</linearGradient>
<linearGradient id="paint2_linear_2474_5844" x1="15.6031" y1="55.4313" x2="15.6031" y2="19.0871" gradientUnits="userSpaceOnUse">
<stop stop-color="#2F455C"/>
<stop offset="1" stop-color="#1DCEFD"/>
</linearGradient>
<linearGradient id="paint3_linear_2474_5844" x1="16.5845" y1="55.4986" x2="16.5845" y2="17.5698" gradientUnits="userSpaceOnUse">
<stop stop-color="#2F455C"/>
<stop offset="1" stop-color="#1DCEFD"/>
</linearGradient>
<linearGradient id="paint4_linear_2474_5844" x1="17.5677" y1="55.722" x2="17.5677" y2="16.0549" gradientUnits="userSpaceOnUse">
<stop stop-color="#2F455C"/>
<stop offset="1" stop-color="#1DCEFD"/>
</linearGradient>
<linearGradient id="paint5_linear_2474_5844" x1="36.7686" y1="22.9865" x2="35.698" y2="56.2165" gradientUnits="userSpaceOnUse">
<stop stop-color="#2F455C"/>
<stop offset="1" stop-color="#1DCEFD"/>
</linearGradient>
<linearGradient id="paint6_linear_2474_5844" x1="35.278" y1="55.4384" x2="35.278" y2="22.1041" gradientUnits="userSpaceOnUse">
<stop stop-color="#2F455C"/>
<stop offset="1" stop-color="#1DCEFD"/>
</linearGradient>
<linearGradient id="paint7_linear_2474_5844" x1="34.3291" y1="55.4642" x2="34.3291" y2="20.457" gradientUnits="userSpaceOnUse">
<stop stop-color="#2F455C"/>
<stop offset="1" stop-color="#1DCEFD"/>
</linearGradient>
<linearGradient id="paint8_linear_2474_5844" x1="33.3794" y1="55.5383" x2="33.3794" y2="18.8106" gradientUnits="userSpaceOnUse">
<stop stop-color="#2F455C"/>
<stop offset="1" stop-color="#1DCEFD"/>
</linearGradient>
<linearGradient id="paint9_linear_2474_5844" x1="32.4283" y1="55.7669" x2="32.4283" y2="17.1636" gradientUnits="userSpaceOnUse">
<stop stop-color="#2F455C"/>
<stop offset="1" stop-color="#1DCEFD"/>
</linearGradient>
</defs>
</svg>
