<svg width="24" height="25" viewBox="0 0 24 25" fill="none" xmlns="http://www.w3.org/2000/svg">
<path d="M19.8445 10.8336H19.2001V10.8004H12V14.0004H16.5213C15.8617 15.8632 14.0892 17.2004 12 17.2004C9.34922 17.2004 7.20001 15.0512 7.20001 12.4004C7.20001 9.74961 9.34922 7.6004 12 7.6004C13.2236 7.6004 14.3368 8.06201 15.1844 8.81601L17.4473 6.5532C16.0185 5.22159 14.1072 4.40039 12 4.40039C7.58202 4.40039 4 7.98241 4 12.4004C4 16.8184 7.58202 20.4005 12 20.4005C16.4181 20.4005 20.0001 16.8184 20.0001 12.4004C20.0001 11.864 19.9449 11.3404 19.8445 10.8336Z" fill="#FFC107"/>
<path d="M4.92188 8.67681L7.55029 10.6044C8.26149 8.84361 9.9839 7.6004 11.9995 7.6004C13.2231 7.6004 14.3363 8.06201 15.1839 8.81601L17.4467 6.5532C16.0179 5.22159 14.1067 4.40039 11.9995 4.40039C8.92669 4.40039 6.26188 6.1352 4.92188 8.67681Z" fill="#FF3D00"/>
<path d="M12 20.4009C14.0664 20.4009 15.944 19.6101 17.3636 18.3241L14.8876 16.2289C14.0844 16.8373 13.086 17.2009 12 17.2009C9.91915 17.2009 8.15234 15.8741 7.48674 14.0225L4.87793 16.0325C6.20194 18.6233 8.89075 20.4009 12 20.4009Z" fill="#4CAF50"/>
<path d="M19.8444 10.834H19.2V10.8008H12V14.0008H16.5212C16.2044 14.8956 15.6288 15.6672 14.8864 16.2292C14.8868 16.2288 14.8872 16.2288 14.8876 16.2284L17.3636 18.3236C17.1884 18.4828 20 16.4008 20 12.4008C20 11.8644 19.9448 11.3408 19.8444 10.834Z" fill="#1976D2"/>
</svg>
