<svg width="19" height="19" viewBox="0 0 19 19" fill="none" xmlns="http://www.w3.org/2000/svg">
<path d="M13.775 0C12.122 0 10.5355 0.838692 9.5 2.16403C8.4645 0.838692 6.878 0 5.225 0C2.299 0 0 2.50572 0 5.69482C0 9.60872 3.23 12.7978 8.1225 17.6436L9.5 19L10.8775 17.6332C15.77 12.7978 19 9.60872 19 5.69482C19 2.50572 16.701 0 13.775 0ZM9.595 16.1008L9.5 16.2044L9.405 16.1008C4.883 11.6381 1.9 8.68719 1.9 5.69482C1.9 3.62398 3.325 2.07084 5.225 2.07084C6.688 2.07084 8.113 3.09591 8.6165 4.51444H10.393C10.887 3.09591 12.312 2.07084 13.775 2.07084C15.675 2.07084 17.1 3.62398 17.1 5.69482C17.1 8.68719 14.117 11.6381 9.595 16.1008Z" fill="#6D6D6D"/>
</svg>
