<svg width="294" height="123" viewBox="0 0 294 123" fill="none" xmlns="http://www.w3.org/2000/svg">
<g clip-path="url(#clip0_2221_21937)">
<path d="M97.8407 22.2434L122.447 67.541L56.8297 84.5275L32.2231 39.23L97.8407 22.2434ZM94.3255 15.7723L28.7079 32.7589C23.5523 34.0936 20.9158 38.0975 22.8492 41.6566L47.4558 86.9542C49.3892 90.5133 55.1893 92.3333 60.345 90.9986L125.963 74.012C131.118 72.6774 133.755 68.6734 131.821 65.1143L107.215 19.8167C105.281 16.2576 99.4811 14.4376 94.3255 15.7723ZM87.1193 50.336L79.8603 66.4975L65.278 60.714L58.0015 76.8431L114.245 62.2832L87.1193 50.336Z" fill="#F9F9F9"/>
</g>
<g clip-path="url(#clip1_2221_21937)">
<path d="M267.925 59.8322L240.433 93.4256L191.77 74.4472L219.262 40.8537L267.925 59.8322ZM272.507 54.2333L223.844 35.2548C219.383 33.5151 213.672 34.6113 211.152 37.6907L183.66 71.2841C181.14 74.3635 182.728 78.3064 187.188 80.0461L235.851 99.0245C240.312 100.764 246.024 99.6681 248.544 96.5887L276.036 62.9952C278.556 59.9158 276.968 55.9729 272.507 54.2333ZM215.884 67.8609L217.559 76.8605L234.719 72.1044L238.669 89.0446L198.117 73.2293L215.884 67.8609ZM190.349 36.9634L158.275 76.1558C155.755 79.2352 157.343 83.1781 161.803 84.9178L218.577 107.059L223.159 101.46L166.385 79.3189L198.459 40.1265L190.349 36.9634Z" fill="#F9F9F9"/>
</g>
<defs>
<clipPath id="clip0_2221_21937">
<rect width="116.195" height="88.3706" fill="white" transform="matrix(0.968088 -0.250611 0.477339 0.878719 0 29.1191)"/>
</clipPath>
<clipPath id="clip1_2221_21937">
<rect width="104.466" height="86.8177" fill="white" transform="matrix(0.931656 0.363342 -0.633326 0.773885 195.984 17.002)"/>
</clipPath>
</defs>
</svg>
